<?xml version="1.0" encoding="UTF-8" standalone="no"?>
<!-- Generator: Adobe Illustrator 26.0.3, SVG Export Plug-In . SVG Version: 6.00 Build 0)  -->

<svg
   version="1.1"
   id="Layer_1"
   x="0px"
   y="0px"
   width="70.76px"
   height="70.76px"
   viewBox="0 0 70.76 70.76"
   style="enable-background:new 0 0 70.76 70.76;"
   xml:space="preserve"
   sodipodi:docname="evitaLab_symbol.svg"
   inkscape:version="1.3 (0e150ed6c4, 2023-07-21)"
   xmlns:inkscape="http://www.inkscape.org/namespaces/inkscape"
   xmlns:sodipodi="http://sodipodi.sourceforge.net/DTD/sodipodi-0.dtd"
   xmlns="http://www.w3.org/2000/svg"
   xmlns:svg="http://www.w3.org/2000/svg"><defs
   id="defs5" /><sodipodi:namedview
   id="namedview5"
   pagecolor="#ffffff"
   bordercolor="#000000"
   borderopacity="0.25"
   inkscape:showpageshadow="2"
   inkscape:pageopacity="0.0"
   inkscape:pagecheckerboard="0"
   inkscape:deskcolor="#d1d1d1"
   showgrid="false"
   showguides="true"
   inkscape:zoom="4.2098696"
   inkscape:cx="57.483966"
   inkscape:cy="73.636486"
   inkscape:window-width="1920"
   inkscape:window-height="1016"
   inkscape:window-x="0"
   inkscape:window-y="27"
   inkscape:window-maximized="1"
   inkscape:current-layer="Layer_1" />&#10;<linearGradient
   id="SVGID_1_"
   gradientUnits="userSpaceOnUse"
   x1="10.3606"
   y1="11.8369"
   x2="60.3975"
   y2="61.8737"
   gradientTransform="matrix(1 0 0 -1 0 72.2362)">&#10;	<stop
   offset="0"
   style="stop-color:#22BEE4"
   id="stop1" />&#10;	<stop
   offset="1"
   style="stop-color:#8533C3"
   id="stop2" />&#10;</linearGradient>&#10;<path
   style="fill-rule:evenodd;clip-rule:evenodd;fill:url(#SVGID_1_);"
   d="M35.38,0c19.54,0,35.38,15.84,35.38,35.38  S54.92,70.76,35.38,70.76S0,54.93,0,35.38C0,15.84,15.84,0,35.38,0z"
   id="path2" />&#10;<linearGradient
   id="SVGID_00000040540015677284207580000003304641534113081781_"
   gradientUnits="userSpaceOnUse"
   x1="25.72"
   y1="36.8362"
   x2="36.35"
   y2="36.8362"
   gradientTransform="matrix(1,0,0,-1,62.407371,70.820999)">&#10;	<stop
   offset="0.05"
   style="stop-color:#FFFFFF;stop-opacity:0"
   id="stop3" />&#10;	<stop
   offset="0.95"
   style="stop-color:#FFFFFF"
   id="stop4" />&#10;</linearGradient>&#10;&#10;&#10;<path
   d="m 23.83,54.63 a 5.775,5.775 0 0 1 -5.775,-5.775 c 0,-1.155 0.3465,-2.233 0.9625,-3.13775 L 29.605,27.31425 V 23.83 A 1.925,1.925 0 0 1 27.68,21.905 V 19.98 a 3.85,3.85 0 0 1 3.85,-3.85 h 7.7 a 3.85,3.85 0 0 1 3.85,3.85 v 1.925 a 1.925,1.925 0 0 1 -1.925,1.925 v 3.48425 l 10.5875,18.403 C 52.3585,46.622 52.705,47.7 52.705,48.855 A 5.775,5.775 0 0 1 46.93,54.63 h -23.1 m -1.925,-5.775 a 1.925,1.925 0 0 0 1.925,1.925 h 23.1 a 1.925,1.925 0 0 0 1.925,-1.925 c 0,-0.40425 -0.13475,-0.78925 -0.3465,-1.09725 L 44.10025,40.13475 39.23,45.005 29.47025,35.24525 22.2515,47.75775 c -0.21175,0.308 -0.3465,0.693 -0.3465,1.09725 m 15.4,-17.325 a 1.925,1.925 0 0 0 -1.925,1.925 1.925,1.925 0 0 0 1.925,1.925 1.925,1.925 0 0 0 1.925,-1.925 1.925,1.925 0 0 0 -1.925,-1.925 z"
   id="path1-3"
   style="stroke-width:2.925;fill:#ffffff;stroke:none;stroke-opacity:0.99992335;stroke-dasharray:none;fill-opacity:1" /></svg>
